<?xml version="1.0" encoding="UTF-8"?>
<svg width="512px" height="512px" viewBox="0 0 512 512" version="1.1" xmlns="http://www.w3.org/2000/svg" xmlns:xlink="http://www.w3.org/1999/xlink">
    <title>mcpv备份</title>
    <defs>
        <linearGradient x1="50%" y1="-1.12323345e-14%" x2="50%" y2="93.9220669%" id="linearGradient-1">
            <stop stop-color="#4E4E4E" offset="0%"></stop>
            <stop stop-color="#232323" offset="100%"></stop>
        </linearGradient>
        <path d="M342.559854,51 C383.681156,51 398.592734,55.2815813 413.626067,63.321496 C428.659401,71.3614106 440.457649,83.1596586 448.497563,98.1929919 C456.537478,113.226325 460.819059,128.137903 460.819059,169.259205 L460.819059,342.740795 C460.819059,383.862097 456.537478,398.773675 448.497563,413.807008 C440.457649,428.840341 428.659401,440.638589 413.626067,448.678504 C398.592734,456.718419 383.681156,461 342.559854,461 L169.078264,461 C127.956962,461 113.045384,456.718419 98.0120511,448.678504 C82.9787177,440.638589 71.1804698,428.840341 63.1405551,413.807008 C55.1006405,398.773675 50.8190592,383.862097 50.8190592,342.740795 L50.8190592,169.259205 C50.8190592,128.137903 55.1006405,113.226325 63.1405551,98.1929919 C71.1804698,83.1596586 82.9787177,71.3614106 98.0120511,63.321496 C113.045384,55.2815813 127.956962,51 169.078264,51 L342.559854,51 Z" id="path-2"></path>
        <filter x="-5.4%" y="-2.9%" width="110.7%" height="111.7%" filterUnits="objectBoundingBox" id="filter-4">
            <feOffset dx="0" dy="14" in="SourceAlpha" result="shadowOffsetOuter1"></feOffset>
            <feGaussianBlur stdDeviation="5" in="shadowOffsetOuter1" result="shadowBlurOuter1"></feGaussianBlur>
            <feColorMatrix values="0 0 0 0 0   0 0 0 0 0   0 0 0 0 0  0 0 0 0.100169362 0" type="matrix" in="shadowBlurOuter1"></feColorMatrix>
        </filter>
        <linearGradient x1="50%" y1="0%" x2="50%" y2="98.8991477%" id="linearGradient-5">
            <stop stop-color="#2F2F2F" offset="0%"></stop>
            <stop stop-color="#3B3939" offset="100%"></stop>
        </linearGradient>
        <path d="M338.597974,54 C378.315133,54 392.717535,58.1458239 407.237535,65.9308144 C421.757535,73.7158049 433.152916,85.1399621 440.918297,99.6966288 C448.683678,114.253295 452.819059,128.692067 452.819059,168.509523 L452.819059,336.490477 C452.819059,376.307933 448.683678,390.746705 440.918297,405.303371 C433.152916,419.860038 421.757535,431.284195 407.237535,439.069186 C392.717535,446.854176 378.315133,451 338.597974,451 L171.040145,451 C131.322985,451 116.920583,446.854176 102.400583,439.069186 C87.8805831,431.284195 76.4852021,419.860038 68.7198211,405.303371 C60.9544401,390.746705 56.8190592,376.307933 56.8190592,336.490477 L56.8190592,168.509523 C56.8190592,128.692067 60.9544401,114.253295 68.7198211,99.6966288 C76.4852021,85.1399621 87.8805831,73.7158049 102.400583,65.9308144 C116.920583,58.1458239 131.322985,54 171.040145,54 L338.597974,54 Z" id="path-6"></path>
        <filter x="-5.6%" y="-3.0%" width="111.1%" height="112.1%" filterUnits="objectBoundingBox" id="filter-8">
            <feOffset dx="0" dy="14" in="SourceAlpha" result="shadowOffsetOuter1"></feOffset>
            <feMorphology radius="13" operator="erode" in="SourceAlpha" result="shadowInner"></feMorphology>
            <feOffset dx="0" dy="14" in="shadowInner" result="shadowInner"></feOffset>
            <feComposite in="shadowOffsetOuter1" in2="shadowInner" operator="out" result="shadowOffsetOuter1"></feComposite>
            <feGaussianBlur stdDeviation="5" in="shadowOffsetOuter1" result="shadowBlurOuter1"></feGaussianBlur>
            <feColorMatrix values="0 0 0 0 0   0 0 0 0 0   0 0 0 0 0  0 0 0 0.100169362 0" type="matrix" in="shadowBlurOuter1"></feColorMatrix>
        </filter>
        <linearGradient x1="-8.5203264%" y1="-13.8886978%" x2="86.6675093%" y2="81.9374555%" id="linearGradient-9">
            <stop stop-color="#FFFFFF" stop-opacity="0.577687937" offset="0%"></stop>
            <stop stop-color="#E2E2E2" stop-opacity="0" offset="100%"></stop>
        </linearGradient>
        <path d="M0,0 L257,0 L257,257 L0,257 L0,0 Z" id="path-10"></path>
        <filter x="-2.5%" y="-5.3%" width="105.4%" height="113.2%" filterUnits="objectBoundingBox" id="filter-11">
            <feMorphology radius="0.5" operator="dilate" in="SourceAlpha" result="shadowSpreadOuter1"></feMorphology>
            <feOffset dx="0" dy="4" in="shadowSpreadOuter1" result="shadowOffsetOuter1"></feOffset>
            <feGaussianBlur stdDeviation="5" in="shadowOffsetOuter1" result="shadowBlurOuter1"></feGaussianBlur>
            <feColorMatrix values="0 0 0 0 0   0 0 0 0 0   0 0 0 0 0  0 0 0 0.371749344 0" type="matrix" in="shadowBlurOuter1"></feColorMatrix>
        </filter>
    </defs>
    <g id="mcpv备份" stroke="none" fill="none">
        <mask id="mask-3" fill="white">
            <use xlink:href="#path-2"></use>
        </mask>
        <g id="Path" fill-rule="nonzero">
            <use fill="black" fill-opacity="1" filter="url(#filter-4)" xlink:href="#path-2"></use>
            <use fill="url(#linearGradient-1)" xlink:href="#path-2"></use>
        </g>
        <mask id="mask-7" fill="white">
            <use xlink:href="#path-6"></use>
        </mask>
        <g id="Path" fill-rule="nonzero">
            <use fill="black" fill-opacity="1" filter="url(#filter-8)" xlink:href="#path-6"></use>
            <path stroke="url(#linearGradient-5)" stroke-width="13" d="M338.597974,60.5 C376.470495,60.5 390.295853,64.2227433 404.166128,71.6593797 C417.538156,78.8288773 428.031942,89.3503652 435.183302,102.756012 C442.603438,116.665497 446.319059,130.528997 446.319059,168.509523 L446.319059,336.490477 C446.319059,374.471003 442.603438,388.334503 435.183302,402.243988 C428.031942,415.649635 417.538156,426.171123 404.166128,433.34062 C390.295853,440.777257 376.470495,444.5 338.597974,444.5 L171.040145,444.5 C133.167624,444.5 119.342265,440.777257 105.47199,433.34062 C92.0999626,426.171123 81.606176,415.649635 74.4548166,402.243988 C67.0346802,388.334503 63.3190592,374.471003 63.3190592,336.490477 L63.3190592,168.509523 C63.3190592,130.528997 67.0346802,116.665497 74.4548166,102.756012 C81.606176,89.3503652 92.0999626,78.8288773 105.47199,71.6593797 C119.342265,64.2227433 133.167624,60.5 171.040145,60.5 L338.597974,60.5 Z" stroke-linejoin="square"></path>
        </g>
        <rect id="矩形" stroke="#FFFFFF" stroke-width="3" fill="url(#linearGradient-9)" fill-rule="evenodd" opacity="0.44" mask="url(#mask-7)" transform="translate(249.4146, 256) rotate(361) translate(-249.4146, -256)" x="31.9146341" y="44.5" width="435" height="423" rx="13"></rect>
        <g id="M" stroke-width="1" fill-rule="evenodd" mask="url(#mask-7)" fill="#181818">
            <g transform="translate(-14, -46)" fill-rule="nonzero" id="路径">
                <path d="M41.146407,537 C67.6695769,537 83.6561451,520.639133 83.6561451,493.007448 L83.6561451,158.518619 L86.1994627,158.518619 L225.355272,496.279621 C234.075218,517.730535 248.245131,527.547055 269.681666,527.547055 C291.481531,527.547055 304.924782,517.730535 314.008059,495.916046 L453.163868,158.518619 L455.707186,158.518619 L455.707186,493.007448 C455.707186,520.639133 471.330423,537 497.853593,537 C524.376763,537 540,520.639133 540,493.007448 L540,59.6262695 C540,22.1780636 517.836803,0 480.4137,0 C447.713902,0 428.820685,14.1794177 415.014103,48.7190251 L271.13499,402.113744 L268.228341,402.113744 L123.985897,48.7190251 C110.179315,13.8158429 91.6494291,0 59.3129617,0 C21.889859,0 -1,22.5416385 -1,59.6262695 L-1,493.007448 C-1,520.639133 14.6232371,537 41.146407,537 Z"></path>
            </g>
        </g>
        <g id="mcp" mask="url(#mask-7)" xlink:href="#path-10">
            <g transform="translate(124, 128)">
                <use fill="black" fill-opacity="1" filter="url(#filter-11)" xlink:href="#path-10"></use>
                <g id="ModelContextProtocol" stroke-width="1" fill="none" fill-rule="evenodd" transform="translate(11, 0)">
                    <path d="M157.562405,25.6217496 C146.784878,15.1919484 129.614989,15.1919484 118.837463,25.6217496 L15.5781023,126.314169 C11.9852757,129.786592 6.26619064,129.786592 2.673364,126.314169 C0.964230243,124.661392 0,122.39153 0,120.020893 C0,117.650256 0.964230243,115.380394 2.673364,113.727617 L105.932725,13.0351972 C123.893611,-4.34506572 152.506257,-4.34506572 170.467143,13.0351972 C180.605179,22.8388084 185.407179,36.877937 183.382609,50.7948546 C197.552272,48.7909163 211.854711,53.4408466 222.096823,63.3814071 L222.63318,63.9147355 C231.178849,72.1786211 236,83.527931 236,95.3811167 C236,107.234302 231.178849,118.583612 222.63318,126.847498 L129.24278,217.908005 C128.673274,218.458315 128.351943,219.21435 128.351943,220.003986 C128.351943,220.793622 128.673274,221.549657 129.24278,222.099967 L148.422889,240.809131 C150.132023,242.461908 151.096253,244.73177 151.096253,247.102407 C151.096253,249.473044 150.132023,251.742906 148.422889,253.395683 C144.830063,256.868106 139.110978,256.868106 135.518151,253.395683 L116.338041,234.697186 C112.346905,230.840953 110.09496,225.542885 110.09496,220.009319 C110.09496,214.475754 112.346905,209.177685 116.338041,205.321453 L209.728442,114.250279 C214.853101,109.290471 217.743878,102.481437 217.743878,95.3704502 C217.743878,88.2594633 214.853101,81.4504295 209.728442,76.4906214 L209.192085,75.9679595 C198.427292,65.5499886 181.281531,65.5358087 170.499325,75.9359598 L93.5643428,150.964612 L93.5428886,150.985946 L92.4916298,152.020603 C88.897463,155.499943 83.1703311,155.499943 79.5761643,152.020603 C77.8670306,150.367826 76.9028003,148.097964 76.9028003,145.727327 C76.9028003,143.356689 77.8670306,141.086827 79.5761643,139.43405 L157.594586,63.3494073 C162.704946,58.3864082 165.583477,51.5818641 165.577419,44.4788323 C165.57136,37.3758005 162.681224,30.5761217 157.562405,25.6217496 L157.562405,25.6217496 Z" id="路径" fill="#FFFFFF"></path>
                    <path d="M144.68027,51.191367 C146.389929,49.5391 147.354455,47.2699386 147.354455,44.9000332 C147.354455,42.5301278 146.389929,40.2609664 144.68027,38.6086995 C141.084999,35.1304335 135.356107,35.1304335 131.760836,38.6086995 L55.3709272,113.059703 C46.8226326,121.321038 42,132.666845 42,144.516372 C42,156.365899 46.8226326,167.711706 55.3709272,175.973041 C73.3396291,193.34232 101.956473,193.34232 119.925175,175.973041 L196.325815,101.522037 C198.035473,99.8697699 199,97.6006086 199,95.2307031 C199,92.8607977 198.035473,90.5916364 196.325815,88.9393694 C192.730543,85.4611034 187.001652,85.4611034 183.406381,88.9393694 L107.016472,163.390373 C96.2356336,173.816955 79.0604689,173.816955 68.2796308,163.390373 C63.153397,158.432096 60.2617317,151.625164 60.2617317,144.516372 C60.2617317,137.40758 63.153397,130.600648 68.2796308,125.642371 L144.68027,51.191367 Z" id="路径" fill="#FFFFFF"></path>
                </g>
            </g>
        </g>
    </g>
</svg>